<?xml version="1.0" encoding="utf-8"?>
<!-- Generator: Adobe Illustrator 27.5.0, SVG Export Plug-In . SVG Version: 6.00 Build 0)  -->
<svg version="1.1" id="Layer_1" xmlns="http://www.w3.org/2000/svg" xmlns:xlink="http://www.w3.org/1999/xlink" x="0px" y="0px"
	 viewBox="0 0 4000 4000" style="enable-background:new 0 0 4000 4000;" xml:space="preserve">
<g>
	<g>
		<g style="opacity:0.24;">
			<g>
				<ellipse style="fill:#306BE2;" cx="1980.912" cy="3540.712" rx="1070.173" ry="92.479"/>
			</g>
		</g>
		<g>
			<g>
				<g>
					<path style="fill:#895AED;" d="M3313.2,2586.23c0,66.611-87.827,131.692-227.019,187.547
						c-164.109,65.87-399.614,118.912-646.517,146.494c-550.352,61.528-1157.347-3.305-1156.705-334.041
						C1281.775,1981.357,3313.2,2265.809,3313.2,2586.23z"/>
				</g>
			</g>
			<g>
				<g>
					<path style="fill:#643CD3;" d="M3313.2,2586.23c0,66.611-87.827,131.692-227.019,187.547h-0.049
						c-2.566,1.036-5.132,2.072-7.698,3.059c-5.18,2.072-10.46,4.096-15.789,6.118c-26.693,10.115-55.016,19.885-84.817,29.259
						c-2.961,0.938-5.97,1.876-8.98,2.813c-9.03,2.813-18.157,5.575-27.434,8.289c-5.476,1.629-11.003,3.208-16.578,4.836
						c-10.115,2.861-20.379,5.674-30.789,8.485c-3.208,0.889-6.415,1.777-9.671,2.616c-14.161,3.749-28.568,7.401-43.223,11.003
						c-3.897,0.987-7.845,1.924-11.743,2.861c-8.635,2.073-17.368,4.145-26.102,6.167c-7.204,1.629-14.506,3.256-21.808,4.885
						c-12.138,2.714-24.374,5.329-36.759,7.895c-8.24,1.727-16.53,3.404-24.868,5.033c-4.195,0.839-8.388,1.677-12.582,2.467
						c-1.431,0.344-2.911,0.591-4.391,0.838c-4.983,1.036-10.066,1.973-15.099,2.912c-6.118,1.135-12.286,2.319-18.503,3.404
						c-4.293,0.789-8.536,1.579-12.829,2.319c-5.23,0.937-10.509,1.875-15.789,2.763c-6.266,1.085-12.582,2.171-18.897,3.207
						c-5.674,0.937-11.349,1.875-17.073,2.813c-16.677,2.665-33.453,5.23-50.377,7.698c-5.132,0.789-10.263,1.48-15.444,2.22
						c-0.543,0.099-1.085,0.148-1.677,0.247c-3.849,0.542-7.747,1.085-11.596,1.579c-4.391,0.641-8.832,1.233-13.322,1.825
						c-4.44,0.592-8.93,1.184-13.371,1.726c-19.638,2.566-39.424,4.934-59.259,7.156
						c-550.352,61.528-1157.347-3.305-1156.705-334.041c0-10.707,0.591-21.117,1.825-31.281
						c35.772,295.208,590.713,358.907,1111.065,307.396c-39.719-52.894-74.999-100.854-77.663-108.008l363.25-422.213
						c-0.247,4.738-125.771,443.726,170.77,452.855c239.157-59.852,419.154-142.498,454.63-230.029
						C3311.029,2565.311,3313.2,2575.77,3313.2,2586.23z"/>
				</g>
			</g>
			<g style="opacity:0.6;">
				<g>
					<path style="fill:#FFFFFF;" d="M3313.2,2586.23c0,5.625-0.641,11.251-1.875,16.826
						c-68.239-310.257-1992.199-572.308-2027.873,0.05c-0.345-5.576-0.493-11.151-0.493-16.875
						C1281.775,1981.357,3313.2,2265.809,3313.2,2586.23z"/>
				</g>
			</g>
			<g>
				<g>
					<path style="fill:#02023D;" d="M2079.917,2955.54c-260.134,0-500.791-35.801-650.93-122.747
						c-106.611-61.738-160.566-144.707-160.369-246.599c-0.198-101.838,53.757-184.807,160.369-246.545
						c396.56-229.649,1424.944-102.525,1774.348,98.901c82.417,47.512,124.207,97.195,124.207,147.671
						c0,50.476-41.79,100.161-124.207,147.674C2986.216,2859.058,2506.873,2955.54,2079.917,2955.54z M2078.167,2245.594
						c-276.228,0-500.657,41.189-634.807,118.875c-97.097,56.228-146.238,130.827-146.06,221.726
						c-0.178,90.955,48.962,165.554,146.06,221.78c173.118,100.254,496.689,139.734,887.734,108.325
						c351.782-28.257,688.535-109.607,857.917-207.254c71.863-41.428,109.849-83.899,109.849-122.825
						c0-38.923-37.983-81.396-109.849-122.825c-169.382-97.644-506.133-178.997-857.917-207.251
						C2243.069,2249.075,2158.406,2245.594,2078.167,2245.594z"/>
				</g>
			</g>
			<g>
				<g>
					<g>
						<path style="fill:#1ED8FF;" d="M2854.825,3277.006c-2.517,10.362-6.365,20.131-11.397,29.112
							c-21.02,37.648-62.121,61.726-106.923,61.726H1638.861c-72.729-12.434-198.104-209.158-49.094-239.502
							c149.01-30.296,297.527,169.29,297.527,169.29c28.716,28.125,77.861,32.91,133.32,30.542h405.189
							c31.53-6.563,65.032-59.259,74.111-80.525C2597.659,3078.261,2890.499,3129.823,2854.825,3277.006z"/>
					</g>
				</g>
				<g>
					<g>
						<path style="fill:#1FB4FF;" d="M2844.409,3292.994c-0.395,4.49-0.691,8.881-0.987,13.125
							c-21.019,37.648-62.121,61.726-106.922,61.726h-289.879c0-0.099,41.348-7.154,89.505-98.583c0,0,28.124-71.545,149.75-85.114
							C2807.453,3170.529,2849.294,3234.524,2844.409,3292.994z"/>
					</g>
				</g>
				<g>
					<g>
						<path style="fill:#02023D;" d="M2736.482,3382.671l-1097.625-0.002c-0.84,0-1.675-0.071-2.502-0.212
							c-53.816-9.233-129.89-100.286-131.077-177.278c-0.43-27.825,9.592-76.687,81.521-91.321
							c152.444-31.016,298.447,156.575,311.587,173.95c21.514,20.352,59.094,28.225,121.597,25.564
							c0.212-0.01,0.422-0.015,0.635-0.015h403.454c23.159-6.177,53.074-50.068,62.227-71.506c0.232-0.544,0.496-1.074,0.791-1.587
							c62.725-108.708,204.138-134.964,299.175-96.956c65.339,26.133,97.129,78.706,82.964,137.205
							C2854.663,3340.662,2800.076,3382.671,2736.482,3382.671z M1640.22,3353.065l1096.262,0.002
							c49.88,0,92.634-32.7,103.972-79.521c15.278-63.098-40.493-92.873-65.181-102.749
							c-83.386-33.337-207.124-10.837-262.134,83.562c-7.563,17.017-43.027,79.741-84.363,88.296c-0.986,0.205-1.992,0.308-3,0.308
							h-404.846c-48.474,2.061-108.565-0.075-144.011-34.726c-0.552-0.54-1.064-1.128-1.526-1.746
							c-1.433-1.919-144.675-191.687-282.691-163.623c-39.426,8.023-58.34,28.254-57.822,61.856
							C1535.806,3264.735,1598.938,3344.722,1640.22,3353.065z"/>
					</g>
				</g>
				<g>
					<g>
						<path style="fill:#02023D;" d="M1977.185,3342.963l-258.25-3.225c-5.465-0.46-10.337-1.733-15.155-2.832
							c-61.787-14.683-116.697-59.791-133.969-122.091c0,0-3.728-12.929-3.728-12.929c-3.028-11.215,13.46-16.313,17.208-5.229
							c2.637,7.245,4.835,17.192,8.126,24.022c19.472,49.203,66.505,83.122,117.501,93.979c3.808,0.85,8.011,1.59,11.315,1.999
							l-1.298-0.073l258.25-3.225C1996.767,3313.644,1997.182,3342.53,1977.185,3342.963L1977.185,3342.963z"/>
					</g>
				</g>
			</g>
			<g>
				<g>
					<path style="fill:#FEBC42;" d="M2162.268,3180.692l-50.624,21.266c0,0,122.07-32.959,176.148-23.485
						c40.411,7.105,76.38,39.916,78.65,75.245c1.628,25.805-14.802,52.943-60.69,72.334c-20.18,3.651-258.005,0-258.005,0
						s-130.163,13.668-160.458-28.421c-30.345-42.088,9.77-124.29,9.77-124.29l15.69-57.384l37.203-135.886l364.582-39.028
						l7.944-0.838l108.6-11.645c7.006,11.448,12.138,22.302,15.592,32.564C2482.639,3067.948,2336.492,3116.5,2162.268,3180.692z"/>
				</g>
			</g>
			<g>
				<g>
					<path style="fill:#F29130;" d="M2366.441,3253.719c1.628,25.805-14.802,52.943-60.69,72.334c-20.18,3.651-258.005,0-258.005,0
						s-130.163,13.668-160.458-28.421c-30.345-42.088,9.77-124.29,9.77-124.29l15.69-57.384
						c141.166-62.268,370.306-161.296,401.785-174.914c2.418-1.036,3.651-1.579,3.651-1.579l4.293,0.741l124.143,20.919
						c0,0-173.78,114.374-421.374,172.103c0,0-96.265,91.676-72.828,130.754C1974.574,3300.838,2298.597,3292.943,2366.441,3253.719
						z"/>
				</g>
			</g>
			<g>
				<g>
					<path style="fill:#02023D;" d="M2001.27,3343.096c-43.682,0-103.828-6.021-126.011-36.794
						c-33.272-46.145,1.284-124.273,7.869-138.147l52.529-191.97c2.158-7.886,10.313-12.539,18.184-10.371
						c7.886,2.158,12.529,10.298,10.371,18.184l-52.883,193.267c-0.244,0.891-0.569,1.758-0.974,2.585
						c-10.049,20.681-31.641,80.622-11.081,109.141c18.411,25.539,99.902,27.239,146.948,22.317
						c0.586-0.063,1.177-0.115,1.775-0.078c88.774,1.37,233.225,2.646,253.74,0.422c34.702-15.083,52.346-36.008,49.731-59.055
						c-3.057-26.948-32.773-53.65-66.243-59.521c-41.704-7.307-136.667,14.267-169.741,23.198
						c-7.529,2.043-15.33-2.117-17.859-9.482c-2.532-7.366,1.082-15.435,8.264-18.452l50.647-21.286
						c0.205-0.088,0.41-0.169,0.618-0.244l21.062-7.742c126.072-46.284,234.951-86.255,255.618-145.571
						c7.766-22.288,2.729-47.544-15.396-77.212c-4.263-6.978-2.061-16.087,4.915-20.349c6.98-4.265,16.086-2.063,20.349,4.915
						c22.717,37.188,28.804,71.635,18.088,102.385c-20.959,60.159-103.608,99.456-207.136,138.992
						c13.279-0.515,25.513-0.095,35.688,1.69c47.034,8.252,85.959,44.944,90.542,85.344c2.471,21.782-3.254,62.493-69.358,90.406
						c-1.001,0.422-2.043,0.735-3.11,0.927c-20.417,3.716-218.088,0.894-260.002,0.252
						C2042.283,3341.463,2024.007,3343.096,2001.27,3343.096z"/>
				</g>
			</g>
			<g>
				<g>
					<path style="fill:#02023D;" d="M2125.087,3316.011c6.94-14.322,5.512-32.617,0.597-47.902
						c-1.771-4.857,0.863-10.282,5.833-11.786c4.176-1.281,8.569,0.621,10.578,4.315c8.169,14.507,13.112,30.967,12.965,47.837
						c-0.1,6.396-0.596,12.486-2.582,18.766C2144.619,3345.107,2118.138,3334.267,2125.087,3316.011L2125.087,3316.011z"/>
				</g>
			</g>
			<g>
				<g>
					<path style="fill:#02023D;" d="M2250.356,3316.011c6.94-14.322,5.512-32.617,0.597-47.902
						c-1.771-4.857,0.863-10.282,5.833-11.786c4.176-1.281,8.569,0.621,10.577,4.315c8.17,14.507,13.112,30.967,12.965,47.837
						c-0.1,6.396-0.596,12.486-2.581,18.766C2269.889,3345.107,2243.407,3334.267,2250.356,3316.011L2250.356,3316.011z"/>
				</g>
			</g>
			<g>
				<g>
					<path style="fill:#FEBC42;" d="M2675.317,2239.707c14.704,86.594,0,140.179,0,140.179
						c-5.477,102.778-31.529,192.332-31.529,192.332c36.463,8.141,33.01,67.153-12.73,86.347
						c-25.46,136.033-126.264,231.953-126.264,231.953c-162.381,138.699-345.536,164.109-538.263,137.513
						c-128.336-17.713-260.916-58.518-394.384-104.257h-0.69c-429.565-2.665-597.275-354.912-649.133-504.514
						c-24.078-69.374-72.729-128.188-138.204-161.493c-75.196-38.24-153.056-39.128-232.742-14.162
						c31.578-65.278,82.548-110.128,144.323-134.751h0.049c8.536-3.404,17.269-6.413,26.151-9.029h0.099
						c53.338-15.789,113.189-17.665,174.618-5.774c107.86,20.823,202.99,82.893,270.39,169.635
						c137.415,176.691,284.106,258.498,448.166,163.911c95.92-181.032,316.129-289.682,400.305-328.809
						c13.371-6.217,25.016-13.717,35.18-21.908h0.049c53.832-43.37,65.574-106.33,65.574-106.33s79.834,3.602,177.234,14.802
						c103.173,11.842,226.131,32.269,294.863,66.068c133.566,65.723,137.958,224.996,137.958,224.996
						C2711.681,2246.319,2675.317,2239.707,2675.317,2239.707z"/>
				</g>
			</g>
			<g style="opacity:0.6;">
				<g>
					<path style="fill:#FFFFFF;" d="M2050.707,2076.881c-129.718,139.981-288.498,215.67-425.37,358.267
						c-11.595,12.039-23.042,24.621-34.292,37.747c-69.722,38.098-139.576,38.877-198.504,25.937
						c-78.079-17.146-146.152-63.924-193.896-128.039c-147.6-198.21-315.193-285.547-502.896-261.938
						c8.536-3.404,17.269-6.413,26.151-9.029h0.099c53.338-15.789,113.189-17.665,174.618-5.774
						c107.86,20.823,202.99,82.893,270.39,169.635c137.415,176.691,284.106,258.498,448.166,163.911
						c95.92-181.032,316.129-289.682,400.305-328.809c13.371-6.217,25.016-13.717,35.18-21.908H2050.707z"/>
				</g>
			</g>
			<g>
				<g>
					<path style="fill:#F29130;" d="M1571.457,2923.774c-429.565-2.665-597.275-354.912-649.133-504.514
						c-24.078-69.374-72.729-128.188-138.204-161.493c-75.196-38.24-153.056-39.128-232.742-14.162
						c35.92-74.308,97.054-122.169,170.523-143.78h0.099c0,0-69.818,37.597-58.075,63.551
						c11.743,25.954,216.312,10.756,300.438,192.776c84.176,182.068,227.559,484.989,690.469,368.798
						C1654.832,2724.95,1564.154,2857.558,1571.457,2923.774z"/>
				</g>
			</g>
			<g>
				<g>
					<path style="fill:#FFE2AE;" d="M2675.317,2239.707c14.704,86.594,0,140.179,0,140.179
						c-5.477,102.778-31.529,192.332-31.529,192.332c36.463,8.141,33.01,67.153-12.73,86.347
						c-12.434,66.462-42.877,123.353-70.706,164.109c-0.049,0.049-0.099,0.148-0.148,0.247c-29.16,42.581-55.41,67.597-55.41,67.597
						c-162.381,138.699-345.536,164.109-538.263,137.513c-4.934-6.216-9.621-12.581-14.111-19.045
						c-58.223-84.571-73.124-191,64.292-290.718c226.032-163.912,246.409-515.369,244.387-662.307
						c-0.049-6.07-0.198-11.743-0.346-17.073c-0.838-31.331-2.566-49.736-2.566-49.736l35.328-3.799
						c22.598,2.615,46.134,5.576,69.818,9.029c84.57,12.385,171.362,30.641,225.045,57.039
						c45.986,22.599,76.626,56.298,97.054,90.789c39.029,65.672,40.904,134.208,40.904,134.208
						C2711.681,2246.319,2675.317,2239.707,2675.317,2239.707z"/>
				</g>
			</g>
			<g>
				<g>
					<path style="fill:#EFCB92;" d="M2574.02,2796.127c-0.395,0.84-5.378,10.708-13.668,26.546
						c-0.049,0.049-0.099,0.148-0.148,0.247c-29.16,42.581-55.41,67.597-55.41,67.597
						c-162.381,138.699-345.536,164.109-538.263,137.513c-4.934-6.216-9.621-12.581-14.111-19.045
						c29.802-54.819,80.673-120.443,80.673-120.443s215.868-143.434,264.517-285.882c-8.487,36.167-17.812,121.971,58.42,193.418
						C2454.17,2888.051,2570.862,2798.546,2574.02,2796.127z"/>
				</g>
			</g>
			<g>
				<g>
					<path style="fill:#EFCB92;" d="M2685.432,2142.21c-208.318,24.275-373.118-57.088-424.334-86.249
						c-0.049-6.07-0.198-11.743-0.346-17.073l102.581-44.506c84.57,12.385,171.362,30.641,225.045,57.039
						C2634.364,2074.02,2665.004,2107.719,2685.432,2142.21z"/>
				</g>
			</g>
			<g>
				<g>
					<path style="fill:#02023D;" d="M2095.095,3052.193c-11.042,0-22.178-0.225-33.459-0.674
						c-160.715-6.394-331.377-57.961-492.014-112.937c-437.065-3.655-608.027-360.845-661.301-514.468
						c-23.511-67.783-69.995-122.166-130.893-153.127c-67.751-34.453-140.24-38.782-221.611-13.24
						c-5.629,1.763-11.777,0.019-15.636-4.451c-3.859-4.468-4.692-10.803-2.123-16.118
						c62.079-128.369,200.537-188.787,361.372-157.683c108.643,21.016,207.822,83.196,279.268,175.088
						c71.807,92.356,139.863,150.948,208.057,179.119c72.603,29.993,143.762,24.49,217.41-16.844
						c68.762-126.936,205.017-238.455,405.066-331.501c75.923-35.313,92.341-116.719,92.5-117.537
						c1.382-7.217,7.803-12.388,15.205-12.034c13.948,0.625,343.142,16.072,477.957,82.366
						c139.995,68.845,146.067,230.979,146.257,237.847c0.193,6.968-4.5,13.125-11.267,14.785c-6.787,1.67-13.782-1.626-16.833-7.885
						c-4.553-9.333-12.112-15.816-19.47-20.222c7.827,67.041-1.348,110.459-3.538,119.468
						c-4.502,81.167-21.25,153.081-28.596,181.458c12.273,7.612,20.229,20.82,21.672,37.031c2,22.427-9.507,52.171-38.977,68.079
						c-28.115,135.146-124.949,228.557-129.131,232.534c-0.19,0.183-0.388,0.362-0.588,0.532
						C2396.14,3002.816,2258.667,3052.188,2095.095,3052.193z M655.673,2211.692c47.225,0,91.991,10.95,135.172,32.903
						c67.759,34.453,119.414,94.763,145.444,169.817c51.311,147.954,215.986,492.324,635.925,494.583
						c1.604,0.01,3.198,0.278,4.717,0.798c331.792,113.679,651.653,196.906,917.912-30.227c5.425-5.3,98.032-97.397,121.658-223.711
						c0.916-4.893,4.231-8.999,8.821-10.925c21.206-8.904,29.539-27.842,28.306-41.67c-0.566-6.37-3.296-14.419-13.079-16.604
						c-3.989-0.889-7.434-3.394-9.514-6.912c-2.083-3.518-2.615-7.742-1.475-11.667c0.256-0.882,25.652-89.233,30.996-188.965
						c0.056-1.055,0.225-2.102,0.503-3.12c0.129-0.476,13.55-51.992-0.317-133.811c-0.806-4.758,0.757-9.61,4.189-13.003
						c3.435-3.391,8.298-4.897,13.054-4.033c0.955,0.173,13.442,2.551,27.576,10.298c-10.803-49.258-40.833-129.956-123.735-170.722
						c-115.291-56.694-393.093-75.264-454.214-78.726c-8.215,27.649-34.534,93.015-105.898,126.209
						c-196.074,91.196-328.447,199.648-393.438,322.339c-1.304,2.461-3.274,4.504-5.688,5.894
						c-156.523,90.256-309.37,35.403-467.266-167.683c-67.039-86.226-159.915-144.536-261.516-164.19
						c-133.733-25.859-250.145,16.641-312.223,111.624C606.992,2214.524,631.651,2211.692,655.673,2211.692z M1615.196,2427.613
						h0.049H1615.196z"/>
				</g>
			</g>
			<g>
				<g>
					<g>
						<path style="fill:#FEBC42;" d="M2874.162,1189.333l-246.607-92.317c-209.454-98.929-280.85-248.236-310.208-362.017
							c-9.77-37.894-19.391-66.808-30.295-91.823c-0.05-0.099-0.099-0.198-0.148-0.247c-21.858-49.983-48.848-84.374-92.12-143.534
							c-27.977-38.239-41.694-68.337-48.255-90.245c-5.774-19.243,13.322-36.611,31.924-29.062
							c412.147,168.007,595.992,418.117,672.914,706.615C2860.346,1120.403,2867.896,1154.646,2874.162,1189.333z"/>
					</g>
				</g>
				<g style="opacity:0.6;">
					<g>
						<path style="fill:#FFFFFF;" d="M2874.162,1189.333l-0.691-0.247c-3.947-18.009-8.24-35.871-12.976-53.584
							c-76.923-288.498-260.769-538.608-672.915-706.615c-11.842-4.787-23.881,0.493-29.556,9.966
							c-5.23-11.151-8.881-21.068-11.496-29.703c-5.774-19.243,13.322-36.611,31.924-29.062
							c412.147,168.007,595.992,418.117,672.914,706.615C2860.346,1120.403,2867.896,1154.646,2874.162,1189.333z"/>
					</g>
				</g>
				<g>
					<g>
						<path style="fill:#F29130;" d="M2874.162,1189.333l-246.607-92.317c-209.454-98.929-280.85-248.236-310.208-362.017
							c-9.77-37.894-19.391-66.808-30.295-91.823c36.512,63.798,258.448,428.923,564.314,443.527
							C2860.346,1120.403,2867.896,1154.646,2874.162,1189.333z"/>
					</g>
				</g>
				<g>
					<g>
						<path style="fill:#FEBC42;" d="M2486.686,2067.951c-129.619-3.997-253.021-11.99-339.072-43.569
							c-369.763-114.718-259.486-399.515-163.468-679.231c-8.635-0.246-17.22-0.74-25.707-1.381
							c-384.664-29.358-625.547-444.959-712.19-515.319c-49.834-40.411-93.748-83.041-122.662-112.596
							c-24.621-25.164-15.789-67.203,16.727-80.624c205.407-84.817,826.119,174.026,1032.217,504.958
							c363.595-136.527,852.911-93.946,852.911,445.699c19.145,25.559,33.305,53.782,42.137,83.288
							C3124.42,1858.695,2962.285,2103.082,2486.686,2067.951z"/>
					</g>
				</g>
				<g>
					<g>
						<path style="fill:#F29130;" d="M2667.263,1753.066c-17.307,89.48-97.295,95.318-167.842,47.71c0,0-2.202,71.355,54.561,80.574
							s129.184-63.692,129.184-63.692s4.893,49.912,61.656,57.986c56.763,8.074,77.804-44.04,77.804-44.04
							c-49.3,15.82-136.691,7.186-135.545-83.676"/>
					</g>
				</g>
				<g style="opacity:0.6;">
					<g>
						<path style="fill:#FFFFFF;" d="M2937.96,1261.666c-209.799-163.664-543.296-169.289-778.653-80.919
							c-206.098-330.932-826.81-589.775-1032.217-504.958c-6.808,2.813-12.582,6.908-17.22,11.793
							c-2.665-21.168,8.486-43.272,30.444-52.352c205.407-84.817,826.119,174.026,1032.217,504.958
							C2442.18,1038.941,2781.005,1036.177,2937.96,1261.666z"/>
					</g>
				</g>
				<g>
					<g>
						<path style="fill:#F29130;" d="M1203.666,671.532c0,0-59.821-2.586-29.36,44.39c30.461,46.976,153.773,132.12,196.712,197.813
							c42.939,65.693,176.16,229.375,313.663,297.393c137.503,68.017,259.347,62.635,259.347,62.635s34.987-74.211-21.164-136.195
							c-56.151-61.985-99.702-87.919-177.995-109.45c-78.293-21.531-247.439-56.81-286.668-133.857
							C1418.973,817.215,1333.339,689.287,1203.666,671.532z"/>
					</g>
				</g>
				<g>
					<g>
						<path style="fill:#F29130;" d="M2486.686,2067.951c-129.619-3.997-253.021-11.99-339.072-43.569
							c-369.763-114.718-259.486-399.515-163.468-679.231c-8.635-0.246-17.22-0.74-25.707-1.381l46.775-41.2
							c0,0-256.919,588.739,252.972,686.582c509.892,97.893,840.676-16.776,809.393-319.78v-0.198
							C3124.42,1858.695,2962.285,2103.082,2486.686,2067.951z"/>
					</g>
				</g>
				<g>
					<g>
						<path style="fill:#FFE2AE;" d="M1990.352,1327.854c-149.409-22.246-204.379-111.343-204.379-111.343
							c45.997-13.212,83.187-5.872,83.187-5.872c-95.909-99.335-46.976-148.461-46.976-148.461
							C1930.055,1139.755,2026.118,1219.835,1990.352,1327.854z"/>
					</g>
				</g>
				<g>
					<g>
						<path style="fill:#02023D;" d="M2873.184,1204.139c-7.024,0-13.257-5.017-14.548-12.173
							c-68.948-381.663-287.163-635.286-686.736-798.171c-4.768-1.943-8.242,0.549-9.517,1.707
							c-1.287,1.169-4.116,4.421-2.627,9.385c7.698,25.684,23.184,54.539,46.025,85.769l12.837,17.5
							c55.972,76.179,84.065,114.419,112.126,223.152c41.445,160.603,140.293,275.847,302.192,352.324
							c7.39,3.491,10.552,12.314,7.061,19.707c-3.494,7.39-12.317,10.549-19.707,7.061
							c-170.344-80.464-274.434-202.046-318.213-371.694c-26.633-103.203-51.917-137.617-107.317-213.02l-12.876-17.554
							c-24.834-33.953-41.821-65.83-50.488-94.744c-4.319-14.417-0.076-29.666,11.079-39.797
							c11.135-10.115,26.689-12.878,40.601-7.207c409.849,167.073,633.77,427.737,704.69,820.32
							c1.455,8.044-3.889,15.745-11.934,17.197C2874.942,1204.061,2874.058,1204.139,2873.184,1204.139z"/>
					</g>
				</g>
				<g>
					<g>
						<path style="fill:#02023D;" d="M2674.961,1828.301c-0.537,0-1.077-0.029-1.624-0.09c-8.125-0.884-13.994-8.191-13.11-16.316
							c0.039-0.374,4.011-37.759,0.012-72.039c-0.947-8.12,4.866-15.471,12.986-16.418c8.123-0.942,15.474,4.866,16.418,12.986
							c4.397,37.683,0.193,77.026,0.012,78.684C2688.828,1822.689,2682.415,1828.301,2674.961,1828.301z"/>
					</g>
				</g>
				<g>
					<g>
						<path style="fill:#02023D;" d="M2517.542,1841.115c10.615,30.37,47.59,32.724,73.819,22.8
							c28.773-12.4,52.055-36.561,72.387-59.748c6.157-7.763,18.897-6.682,23.733,1.904c6.21,10.592,13.512,20.672,22.087,29.343
							c15.969,16.299,37.669,30.708,60.859,27.034c10.937-1.883,21.58-8.054,30.896-16.688c2.707-2.496,6.925-2.325,9.421,0.381
							c2.17,2.354,2.322,5.851,0.546,8.364c-8.33,11.804-20.429,22.629-35.955,27.462c-46.884,13.309-89.961-23.945-112.935-61.037
							c0-0.001,23.951,1.64,23.951,1.64c-24.369,28.563-49.262,54.582-86.557,67.137c-36.561,11.84-90.083-1.918-93.536-46.327
							C2505.711,1836.597,2515.486,1834.715,2517.542,1841.115L2517.542,1841.115z"/>
					</g>
				</g>
				<g>
					<g>
						<path style="fill:#02023D;" d="M2487.027,2063.518c56.892-5.735,114.845-5.444,171.645-11.378
							c56.158-5.2,112.485-15.538,166.004-32.915c118.556-37.356,228.096-127.357,238.116-258.11
							c1.221-10.821,0.554-23.287,0.331-34.011c-0.428-3.192-1.703-16.551-2.201-20.311c0,0-2.612-13.372-2.612-13.372l-1.306-6.686
							c-1.004-3.287-4.501-15.975-5.601-19.667c-3.146-7.773-6.304-18.073-10.127-25.322c0,0-5.842-12.338-5.842-12.338
							l-6.808-11.848c-1.66-3.115-5.215-8.731-7.297-11.548c0,0-7.731-11.283-7.731-11.283c-1.908-2.697-2.852-5.786-2.944-8.86
							c-0.895-95.04-15.135-192.49-60.789-276.567c-68.926-130.498-204.099-199.713-347.313-215.393
							c-143.55-16.216-289.83,10.117-424.802,60.124c-6.717,2.518-14.114-0.17-17.769-6.031
							c-52.091-83.075-123.555-153.06-200.05-214.2c-187.498-147.747-500.126-304.783-741.547-299.399
							c-25.322,1.479-50.165,5.433-72.672,14.647c-11.128,4.689-19.582,15.337-21.017,27.456
							c-1.579,11.306,2.411,22.271,10.643,30.173c28.141,28.661,57.304,56.417,87.566,82.778
							c14.437,12.886,28.804,23.704,43.207,36.962c40.156,40.638,73.677,86.111,110.648,129.082
							c153.944,185.013,355.45,367.582,608.348,374.901c9.615,0.477,16.256,10.55,13.046,19.569
							c-32.861,96.755-68.454,192.319-85.351,292.797c-33.553,207.025,51.965,300.284,237.622,372.498
							c10.953,4.223,5.794,20.939-5.669,18.271c-42.069-9.601-84.321-25.681-122.251-47.305
							c-54.158-32.018-101.331-78.499-124.586-137.927c-27.564-66.773-25.513-140.773-14.337-210.282
							c17.109-102.319,53.517-200.412,86.571-297.662c0,0,13.547,19.6,13.547,19.6c-289.244-8.631-507.841-231.39-677.506-443.115
							c-19.868-23.802-38.926-47.622-60.565-69.053c-42.77-36.217-85.583-73.467-124.797-113.666
							c-0.001,0.001-6.634-6.726-6.634-6.726c-1.005-0.958-2.439-2.623-3.741-4.128c-25.349-27.538-18.807-75.956,13.122-95.728
							c1.71-1.073,3.343-2.312,5.181-3.125l5.424-2.636c26.706-10.927,55.027-15.37,82.537-16.935
							c283.194-7.047,681.006,204.431,874.009,407.66c35.006,36.688,67.272,76.388,94.383,119.841l-17.767-6.031
							c226.068-82.719,516.69-113.366,714.135,50.883c118.782,101.123,158.879,258.177,158.777,408.669
							c0.002-0.001-2.942-8.859-2.942-8.859l8.631,12.555l4.303,6.286l3.831,6.59c7.223,12.233,15.162,27.622,20.096,41.05
							c0,0,5.344,14.306,5.344,14.306l4.204,14.689l2.071,7.354l1.488,7.496l2.907,15.008l1.688,15.2
							c1.186,9.94,1.139,20.542,1.315,30.539c-0.771,8.328-0.784,22.174-2.496,30.467c-1.039,11.959-4.796,25.792-7.501,37.441
							c-1.702,5.751-5.332,16.168-7.058,21.794c-1.833,5.008-7.02,16.301-8.86,21.098c-2.373,5.403-7.934,14.935-10.516,20.284
							c-27.379,48.272-68.421,87.879-114.728,117.999c-108.874,69.082-241.458,92.532-368.698,87.266
							c-29.258-1.537-58.408-5.453-86.964-12.045c-2.419-0.572-3.917-2.997-3.345-5.416
							C2483.485,2065.02,2485.142,2063.687,2487.027,2063.518L2487.027,2063.518z"/>
					</g>
				</g>
				<g>
					<g>
						<path style="fill:#02023D;" d="M1970.491,1339.468c38.664-91.847-30.214-170.951-98.835-225.384
							c-24.168-19.407-49.957-37.138-76.395-53.966c-6.671-2.975-29.753-13.8-42.751-18.517
							c-92.555-37.859-203.324-39.987-280.801-110.899c-13.085-12.007-24.71-25.453-34.951-39.684
							c-19.974-27.605-31.899-57.931-51.908-85.038c-45.076-65.318-153.025-160.966-235.419-112.626
							c-2.791,1.905-6.668,1.082-8.436-1.802c-1.621-2.618-0.95-6.018,1.425-7.868c28.167-22.8,68.14-24.902,101.889-15.798
							c84.339,23.678,149.416,90.479,191.836,164.648c5.462,9.872,12.121,21.765,18.305,31.161
							c19.456,29.287,44.924,54.394,75.554,71.31c71.779,38.768,158.434,44.502,234.396,75.828
							c16.394,6.489,32.712,13.425,48.461,21.469c27.193,17.371,53.896,35.757,79.318,56.226
							c51.279,41.651,101.13,92.226,116.506,159.858c7.789,34.003,2.896,70.824-10.869,102.473
							c-3.215,7.517-11.914,11.004-19.431,7.789C1970.95,1355.47,1967.459,1346.922,1970.491,1339.468L1970.491,1339.468z"/>
					</g>
				</g>
				<g>
					<g>
						<path style="fill:#02023D;" d="M1990.371,1342.659c-0.728,0-1.46-0.054-2.2-0.164
							c-154.439-22.996-212.405-114.333-214.797-118.21c-2.432-3.943-2.878-8.794-1.208-13.115c1.672-4.319,5.269-7.607,9.719-8.884
							c19.8-5.688,38.079-7.834,52.93-8.352c-71.89-91.182-25.327-139.985-23.12-142.202c5.769-5.791,15.142-5.808,20.935-0.042
							c5.732,5.713,5.808,14.954,0.215,20.757c-1.872,2.068-35.874,42.114,46.965,127.913c4.492,4.653,5.444,11.685,2.349,17.363
							c-3.096,5.681-9.521,8.689-15.864,7.439c-0.246-0.046-22.976-4.245-53.882,0.632c23.735,25.579,79.624,72.456,180.12,87.419
							c8.086,1.204,13.665,8.735,12.461,16.821C2003.899,1337.381,1997.581,1342.659,1990.371,1342.659z"/>
					</g>
				</g>
				<g>
					<g>
						<g>
							<path style="fill:#414168;" d="M2487.198,1307.676c-89.764-11.68-179.838-3.017-270.185,23.59
								c-34.87,10.269-57.162,44.43-52.351,80.461c8.39,62.828,34.281,158.022,113.153,208.516
								c12.554,8.037,26.593,13.384,41.286,15.9c135.509,23.2,251.516-53.11,232.64-262.211
								C2548.628,1339.44,2521.539,1312.145,2487.198,1307.676z"/>
						</g>
					</g>
					<g>
						<g>
							<path style="fill:#02023D;" d="M2364.446,1654.927c-15.449,0-31.438-1.389-47.842-4.197
								c-16.863-2.886-32.6-8.95-46.77-18.022c-81.88-52.417-110.366-148.037-119.844-219.023
								c-5.815-43.547,20.613-84.182,62.839-96.619c93.784-27.622,186.748-35.723,276.277-24.067l0,0
								c41.819,5.439,73.638,38.174,77.378,79.602c9.387,103.984-13.455,184.622-66.052,233.196
								C2465.462,1638.089,2418.25,1654.925,2364.446,1654.927z M2408.933,1317.444c-61.526,0-124.392,9.365-187.739,28.02
								c-28.125,8.284-45.728,35.325-41.858,64.302c8.647,64.778,34.138,151.709,106.46,198.01
								c10.818,6.924,22.864,11.56,35.803,13.774c64.265,11.001,120.645-2.317,158.748-37.505
								c45.591-42.102,65.181-114.299,56.65-208.784c-2.483-27.512-23.745-49.268-51.709-52.908l0,0
								C2460.115,1319.08,2434.639,1317.444,2408.933,1317.444z"/>
						</g>
					</g>
					<g>
						<g>
							<path style="fill:#02023D;" d="M2364.665,1585.869c-11.651,0-23.895-1.084-36.404-3.224
								c-7.714-1.32-14.836-4.052-21.177-8.109c-62.717-40.152-82.449-123.743-88.626-170.001
								c-1.253-9.386,4.717-18.503,13.887-21.206c59.633-17.563,118.891-26.468,176.115-26.468c23.967,0,48.103,1.561,71.738,4.635
								c9.333,1.214,16.691,8.495,17.491,17.313c6.905,76.522-6.119,135.221-37.671,169.75
								c-22.623,24.757-54.709,37.309-95.348,37.309C2364.665,1585.869,2364.67,1585.869,2364.665,1585.869z"/>
						</g>
					</g>
					<g>
						<g>
							<path style="fill:#414168;" d="M2759.336,1296.636c88.168-20.507,178.657-20.801,271.194-3.267
								c35.715,6.767,61.279,38.554,60.057,74.885c-2.13,63.35-18.472,160.638-91.96,218.691
								c-11.697,9.24-25.138,15.95-39.51,19.908c-132.547,36.498-255.538-27.956-257.45-237.898
								C2701.352,1334.324,2725.606,1304.481,2759.336,1296.636z"/>
						</g>
					</g>
					<g>
						<g>
							<path style="fill:#02023D;" d="M2891.563,1631.258c-43.938,0.002-83.723-12.38-115.889-36.655
								c-57.148-43.13-87.856-121.111-88.809-225.515c-0.381-41.594,28.042-77.317,69.119-86.868
								c87.935-20.454,181.23-21.597,277.302-3.396c43.252,8.196,73.572,46.016,72.095,89.927
								c-2.407,71.572-21.287,169.543-97.581,229.81c-13.201,10.43-28.259,18.02-44.753,22.561
								C2938.428,1627.901,2914.429,1631.258,2891.563,1631.258z M2899.756,1295.584c-46.924,0-92.729,5.156-137.065,15.469h-0.002
								c-27.466,6.389-46.472,30.142-46.218,57.764c0.864,94.868,27.502,164.773,77.039,202.156
								c41.399,31.24,98.818,38.914,161.677,21.609c12.659-3.486,24.187-9.29,34.263-17.253
								c67.388-53.23,84.148-142.258,86.343-207.573c0.984-29.216-19.209-54.385-48.018-59.844
								C2984.392,1299.693,2941.629,1295.584,2899.756,1295.584z M2759.336,1296.636h0.049H2759.336z"/>
						</g>
					</g>
					<g>
						<g>
							<path style="fill:#02023D;" d="M2908.801,1561.335c11.594-1.153,23.67-3.444,35.906-6.811
								c7.546-2.077,14.362-5.501,20.271-10.166c58.435-46.162,69.797-131.296,71.365-177.938
								c0.318-9.464-6.525-17.945-15.917-19.728c-61.079-11.575-120.927-14.571-177.87-8.907
								c-23.849,2.372-47.712,6.314-70.927,11.713c-9.167,2.132-15.768,10.105-15.692,18.959
								c0.703,76.83,19.473,133.951,54.287,165.188c24.962,22.397,58.133,31.712,98.573,27.689
								C2908.801,1561.335,2908.796,1561.336,2908.801,1561.335z"/>
						</g>
					</g>
					<g style="opacity:0.6;">
						<g>
							<path style="fill:#FFFFFF;" d="M2336.474,1386.31c0,0-77.07,2.936-86.612,25.201c-9.542,22.265,21.286,91.995,46.487,99.335
								c25.201,7.34-10.857-52.068,19.573-67.283C2380.514,1411.266,2381.065,1381.172,2336.474,1386.31z"/>
						</g>
					</g>
					<g style="opacity:0.6;">
						<g>
							<path style="fill:#FFFFFF;" d="M2876.698,1357.437c0,0-77.07,2.936-86.612,25.201c-9.542,22.265,9.053,99.582,34.253,106.922
								c25.201,7.34,1.377-59.655,31.807-74.87C2920.738,1382.393,2921.29,1352.299,2876.698,1357.437z"/>
						</g>
					</g>
					<g>
						<g>
							<path style="fill:#414168;" d="M2548.042,1356.861c0,0,77.922-60.678,153.622-6.517c4.862,20.073,4.531,41.107,0,51.135
								c-47.214-21.649-96.281-22.756-148.025,5.836L2548.042,1356.861z"/>
						</g>
					</g>
					<g>
						<g>
							<path style="fill:#02023D;" d="M2553.638,1422.117c-2.334,0-4.67-0.552-6.807-1.658c-4.395-2.275-7.361-6.594-7.905-11.514
								l-5.596-50.454c-0.566-5.11,1.56-10.151,5.618-13.311c29.971-23.333,104.341-54.802,171.328-6.875
								c2.888,2.065,4.937,5.103,5.774,8.552c5.54,22.866,5.178,47.266-0.898,60.715c-1.621,3.591-4.609,6.387-8.298,7.769
								c-3.694,1.379-7.778,1.23-11.36-0.408c-45.977-21.082-90.034-19.338-134.697,5.337
								C2558.572,1421.5,2556.106,1422.117,2553.638,1422.117z M2563.736,1364.07l2.3,20.75
								c40.854-17.297,82.524-18.594,124.333-3.875c0.127-6.133-0.378-13.606-1.919-21.689
								C2635.791,1325.286,2582.08,1352.591,2563.736,1364.07z"/>
						</g>
					</g>
				</g>
				<g>
					<g>
						<path style="fill:#FEBC42;" d="M2398.619,1669.39c180.844-220.2,383.148-164.416,514.999-16.915"/>
					</g>
				</g>
				<g>
					<g>
						<path style="fill:#02023D;" d="M2589.853,1666.09c49.828-31.38,105.305-34.001,165.516-12.519
							c11.77,4.199,17.974,17.015,13.696,28.756c-9.169,25.165-31.458,65.964-82.36,82.276c-3.323,1.065-6.862,1.242-10.297,0.632
							c-16.791-2.982-67.636-16.25-94.521-69.995C2576.704,1684.88,2580.05,1672.264,2589.853,1666.09z"/>
					</g>
				</g>
				<g>
					<g>
						<path style="fill:#02023D;" d="M2393.43,1665.128c91.945-136.6,247.729-206.377,401.539-124.533
							c48.976,26.267,91.334,63.686,124.424,106.717c2.621,3.396,1.993,8.274-1.404,10.895c-3.094,2.389-7.427,2.079-10.149-0.569
							c-35.762-34.363-75.017-64.575-118.276-85.922c-118.13-59.668-232.437-30.892-331.123,51.649
							c-18.921,15.715-36.807,32.872-54.73,50.379C2398.182,1679.276,2388.808,1671.826,2393.43,1665.128L2393.43,1665.128z"/>
					</g>
				</g>
				<g>
					<g>
						<g>
							<path style="fill:#FEBC42;" d="M2725.99,1171.027c-35.378,37.696-77.17,52.696-124.29,48.897
								c-158.928,59.259-326.885-34.242-352-163.714v-0.049c-0.642-3.306-1.184-6.612-1.629-9.918c0,0-48.354-50.673-7.992-160.013
								c0,0,44.506,81.709,127.448,65.574c82.942-16.184,230.719-69.522,328.119-25.46c17.122,7.747,32.318,17.763,45.246,29.555
								C2801.532,1011.063,2811.302,1103.824,2725.99,1171.027z"/>
						</g>
					</g>
					<g style="opacity:0.6;">
						<g>
							<path style="fill:#FFFFFF;" d="M2786.976,1074.368c-4.49-31.332-20.871-60.739-46.084-83.633
								c-12.928-11.793-28.124-21.809-45.246-29.555c-97.399-44.062-245.177,9.276-328.119,25.46
								c-82.942,16.135-127.448-65.574-127.448-65.574c-8.882,24.029-13.47,45.197-15.198,63.65
								c-2.566-24.868,0.099-57.581,15.198-98.485c0,0,44.506,81.709,127.448,65.574c82.942-16.184,230.719-69.522,328.119-25.46
								c17.122,7.747,32.318,17.763,45.246,29.555C2775.233,987.133,2793.291,1030.454,2786.976,1074.368z"/>
						</g>
					</g>
					<g>
						<g>
							<path style="fill:#F29130;" d="M2725.99,1171.027c-35.378,37.696-77.17,52.696-124.29,48.897
								c-158.928,59.259-326.885-34.242-352-163.714c37.45,61.775,117.531,135.047,285.439,125.08
								c258.646-15.345,215.818-192.924,205.752-225.391C2801.532,1011.063,2811.302,1103.824,2725.99,1171.027z"/>
						</g>
					</g>
					<g>
						<g>
							<path style="fill:#02023D;" d="M2603.694,1225.303c-105.938,52.636-245.11,22.016-321.739-68.211
								c-25.807-30.418-44.102-68.495-48.539-108.886l3.965,8.242c-23.163-27.409-29.332-65.232-27.865-99.905
								c0.344-3.625,1.265-13.221,1.62-16.745c1.943-12.473,4.806-25.773,8.163-37.895c-0.001,0,6.89-20.817,6.89-20.817
								c3.644-11.759,20.454-13.46,26.388-2.805c18.62,30.701,50.21,57.039,86.853,59.754c10.927,0.418,21.634-0.79,32.424-3.308
								c76.973-17.181,151.873-41.178,234.104-41.316c32.719-0.219,66.669,5.55,96.885,18.898
								c51.087,23.091,93.472,71.657,99.604,129.133c6.141,54.17-22.574,111.368-70.411,137.25
								c-9.906,5.239-19.382-7.288-12.104-15.376c43.426-46.97,71.826-97.706,39.081-159.81
								c-80.431-136.288-271.638-57.576-393.729-35.58c-36.916,6.33-76.659-7.463-103.703-32.397
								c-13.694-12.358-25.314-26.19-34.506-42.239c0,0,26.887-1.952,26.887-1.952l-6.245,18.863
								c-3.24,12.386-6.524,25.59-7.699,38.377c-3.196,29.536,0.134,62.032,17.964,86.422c2.216,2.603,4.966,5.68,4.773,9.243
								c11.653,69.074,64.903,124.907,127.395,154.058c65.021,30.875,139.597,34.152,209.542,16.271
								C2606.182,1212.738,2609.884,1222.345,2603.694,1225.303L2603.694,1225.303z"/>
						</g>
					</g>
					<g>
						<g>
							<path style="fill:#02023D;" d="M2259.992,1037.429c40.997,51.598,107.971,84.161,174.282,75.861
								c21.881-2.843,42.928-11.128,60.099-25.186c3.089-2.632,7.769-2.207,10.323,0.952c2.229,2.747,2.113,6.632-0.09,9.237
								c-8.298,9.828-18.676,17.866-29.855,24.355c-81.106,43.556-188.442,5.984-238.573-67.631
								C2225.71,1039.181,2247.946,1022.743,2259.992,1037.429L2259.992,1037.429z"/>
						</g>
					</g>
				</g>
			</g>
			<g>
				<g>
					<path style="fill:#FEBC42;" d="M2285.127,2896.735c-5.328,15.296-14.111,31.036-26.94,47.12
						c-61.677,77.319-169.339,116.002-232.939,189.372c-63.601,73.42-183.5,158.534-294.567,88.074
						c-111.067-70.459-75.838-169.784-75.838-169.784c-106.675-65.081-75.837-191.345-75.837-191.345
						c12.927-49.933,36.71-95.623,75.837-135.194c0-0.049,0-0.049,0-0.049c41.497-42.039,100.212-77.268,181.526-103.518
						c243.696-59.457,214.338,122.81,214.338,122.81c32.763-19.588,124.291-36.709,181.033,7.796
						C2276.739,2787.295,2305.703,2838.512,2285.127,2896.735z"/>
				</g>
			</g>
			<g>
				<g>
					<path style="fill:#F29130;" d="M2285.127,2896.735c-5.328,15.296-14.111,31.036-26.94,47.12
						c-61.677,77.319-169.339,116.002-232.939,189.372c-63.601,73.42-183.5,158.534-294.567,88.074
						c-111.067-70.459-75.838-169.784-75.838-169.784c-106.675-65.081-75.837-191.345-75.837-191.345
						c12.927-49.933,36.71-95.623,75.837-135.194c-1.726,4.392-78.748,205.062,110.525,173.878c0,0-74.061,118.172-38.585,216.51
						c35.476,98.386,116.199,88.073,259.338-16.135c143.139-104.259,265.406-138.748,289.385-193.763
						C2277.479,2900.929,2280.785,2898.067,2285.127,2896.735z"/>
				</g>
			</g>
			<g>
				<g>
					<path style="fill:#02023D;" d="M1585.979,2861.892c-7.562,69.773,16.131,137.849,76.563,176.984
						c5.983,3.808,8.38,11.16,6.241,17.585c-0.577,1.737-1.351,4.908-1.938,7.531c-2.264,11.339-2.98,23.078-2.078,34.615
						c2.539,32.288,17.709,62.133,41.412,84.857c17.497,15.78,37.877,30.965,59.913,39.326
						c45.265,18.137,95.827,9.861,138.781-12.06c38.768-19.396,73.484-47.939,102.81-80.01
						c21.768-25.531,47.743-48.151,74.405-67.206c65.404-48.648,146.281-86.522,183.897-159.576
						c-0.001-0.001,3.667-7.936,3.667-7.936l2.706-8.174c3.442-10.647,5.116-22.194,4.453-33.352
						c-1.873-41.009-31.375-76.222-64.767-97.957c-45.02-25.481-108.436-22.33-153.751,0.398
						c-10.372,6.376-24.188-3.281-22.204-15.061c5.63-83.555-43.134-122.144-124.374-120.609
						c-24.316,0.267-48.995,3.419-73.581,7.779c-9.558,1.667-12.991-12.372-3.617-15.259c61.864-17.96,139.159-30.731,193.393,14.96
						c32.741,29.107,43.85,75.748,37.409,117.837c0,0-22.202-15.063-22.202-15.063c13.51-7.693,26.791-11.967,40.358-15.46
						c47.575-11.448,100.636-9.963,143.727,15.049c48.025,30.136,86.665,85.165,78.342,144.131
						c-0.617,5.226-2.291,10.974-3.214,16.188c-1.05,3.025-4.013,12.301-5.154,15.499c-2.611,5.823-6.12,13.933-9.377,19.276
						c-58.417,99.628-178.26,134.092-251.505,216.913c-67.321,77.327-175.721,148.259-280.999,107.259
						c-26.088-9.953-49.327-27.085-69.774-45.688c-28.05-26.614-47.445-64.573-50.27-103.8c-1.229-18.499,0.028-36.375,5.631-54.303
						c0,0,6.241,17.583,6.241,17.583c-72.576-38.815-97.902-129.859-75.13-205.674
						C1574.899,2849.815,1587.413,2853.091,1585.979,2861.892L1585.979,2861.892z"/>
				</g>
			</g>
			<g>
				<g>
					<path style="fill:#02023D;" d="M2058.028,2757.075c-52.436,29.126-101.929,65.098-147.352,104.414
						c-8.774,7.366-20.303-5.119-12.186-13.284c33.082-32.634,68.488-62.868,106.035-90.294c12.636-9.2,25.135-17.966,38.853-26.563
						c6.933-4.344,16.075-2.246,20.419,4.686C2068.414,2743.323,2065.7,2753.152,2058.028,2757.075L2058.028,2757.075z"/>
				</g>
			</g>
			<g>
				<g>
					
						<ellipse transform="matrix(0.7683 -0.6401 0.6401 0.7683 -1436.9056 1980.3866)" style="fill:#02023D;" cx="2016.715" cy="2974.745" rx="87.835" ry="49.423"/>
				</g>
			</g>
			<g>
				<g>
					
						<ellipse transform="matrix(0.7683 -0.6401 0.6401 0.7683 -1322.8816 1993.5106)" style="fill:#02023D;" cx="2091.845" cy="2823.819" rx="35.973" ry="26.979"/>
				</g>
			</g>
			<g>
				<g>
					
						<ellipse transform="matrix(0.7683 -0.6401 0.6401 0.7683 -1315.3555 2051.3904)" style="fill:#02023D;" cx="2175.57" cy="2842.379" rx="35.973" ry="26.979"/>
				</g>
			</g>
			<g>
				<g>
					
						<ellipse transform="matrix(0.7683 -0.6401 0.6401 0.7683 -1363.743 2075.6885)" style="fill:#02023D;" cx="2184.916" cy="2921.345" rx="35.973" ry="26.979"/>
				</g>
			</g>
			<g>
				<g>
					<path style="fill:#02023D;" d="M1640.274,3048.833c10.046-36.9,30.784-70.055,54.839-99.281
						c7.807-9.574,16.445-18.421,25.11-27.191c3.465-3.571,9.169-3.655,12.739-0.189c8.774,9.577-6.196,18.43-10.835,26.117
						c-10.766,13.682-20.49,28.28-28.912,43.445c-10.493,19.743-19.718,40.518-23.827,62.46
						C1666.104,3074.696,1636.061,3069.231,1640.274,3048.833L1640.274,3048.833z"/>
				</g>
			</g>
			<g>
				<g>
					<path style="fill:#02023D;" d="M2669.095,2253.13l-29.122-19.927c-8.463-5.794-2.14-19.09,7.605-16.349
						c0,0,34.002,9.432,34.002,9.432C2703.533,2233.792,2688.986,2265.083,2669.095,2253.13L2669.095,2253.13z"/>
				</g>
			</g>
			<g>
				<g>
					<path style="fill:#02023D;" d="M2690.085,2381.171c-9.807,48.787-55.922,79.585-99.615,95.873
						c-10.955,4.198-17.612-11.825-6.915-16.653c15.932-7.69,32.156-17.487,45.318-29.209
						c15.086-14.088,29.066-32.138,31.716-52.547C2662.73,2359.257,2691.271,2361.657,2690.085,2381.171L2690.085,2381.171z"/>
				</g>
			</g>
			<g>
				<g>
					<path style="fill:#02023D;" d="M2650.751,2585.266c-106.193,57.896-233.064,27.979-338.485-15.752
						c0,0.001,18.059-5.684,18.059-5.684c-17.053,25.867-29.44,55.245-37.498,85.231c-8.448,30.668-11.322,62.582-8.986,94.354
						c0.382,3.484-2.243,6.641-5.76,6.824c-3.189,0.181-5.95-2.135-6.416-5.232c-2.432-16.516-4.388-33.295-3.928-50.126
						c0.268-42.303,9.762-84.377,26.182-123.376c6.167-11.702,11.303-36.083,29.377-29.465
						c75.979,30.611,156.948,55.099,238.44,42.331c26.25-4.239,51.656-12.688,75.062-25.215
						C2654.029,2550.374,2667.886,2575.556,2650.751,2585.266L2650.751,2585.266z"/>
				</g>
			</g>
			<g>
				<g>
					<path style="fill:#02023D;" d="M2534.542,2877.323c-60.501,17.04-130.469,22.879-186.37-10.936
						c-7.876-5.054-15.165-10.974-21.84-17.488c-3.563-3.477-3.633-9.183-0.156-12.745c3.434-3.532,9.059-3.607,12.61-0.294
						c11.983,10.62,26.105,18.347,41.33,23.263c46.849,14.144,98.988,6.045,144.505-9.691
						C2543.698,2842.556,2553.767,2870.543,2534.542,2877.323L2534.542,2877.323z"/>
				</g>
			</g>
			<g>
				<g>
					<path style="fill:#02023D;" d="M2636.314,2672.413c-28.843,8.022-58.784,10.097-88.448,8.393
						c-4.979-0.313-8.762-4.602-8.449-9.582c0.286-4.596,3.975-8.179,8.449-8.45c26.611-2.104,53.449-7.582,77.926-18.032
						C2645.264,2636.49,2656.375,2665.619,2636.314,2672.413L2636.314,2672.413z"/>
				</g>
			</g>
			<g>
				<g>
					<g>
						<path style="fill:#FEBC42;" d="M2363.382,2203.985c-25.707,20.328-40.115,45.491-40.115,45.491s-0.148,1.186-0.493,3.356
							c-1.826,11.102-9.819,47.269-37.944,68.584c0,0-27.68,176.642-109.241,217.052
							c-81.561,40.361-223.219-158.582-223.219-158.582c-23.536-45.296-15.987-95.377,9.671-126.61
							c19.391-23.635,49.193-36.463,83.781-28.223c42.434,36.957,74.555,80.822,96.857,131.1l30.098-45.246
							c1.825-2.714,1.43-6.266-0.888-8.585c-6.612-6.563-17.96-23.635-11.841-60.789c0,0-40.361-48.799-52.598-73.765
							c-12.237-24.967,6.612-36.956,23.98-35.723s51.413,50.919,51.413,50.919s27.138-22.302,48.651-23.979
							c0,0-11.25-58.47-11.003-76.331c0.246-17.862,44.061-28.42,58.469,5.625c14.457,33.997,19.096,91.972,19.096,91.972
							s40.608-28.125,55.558-28.371C2368.514,2151.634,2389.089,2183.656,2363.382,2203.985z"/>
					</g>
				</g>
				<g>
					<g>
						<path style="fill:#F29130;" d="M2322.775,2252.833c-1.826,11.102-9.819,47.269-37.944,68.584
							c0,0-27.68,176.642-109.241,217.052c-81.561,40.361-223.219-158.582-223.219-158.582
							c-23.536-45.296-15.987-95.377,9.671-126.61l0.099-0.048c0,0-30.591,113.829,139.438,164.108c0,0-7.944,25.707,32.072,61.677
							c40.016,35.97,112.301-153.057,112.301-153.057s52.104-27.137,67.154-65.326
							C2315.028,2255.695,2318.432,2253.228,2322.775,2252.833z"/>
					</g>
				</g>
				<g>
					<g>
						<path style="fill:#02023D;" d="M2050.898,2219.186c44.681,34.328,80.906,80.09,105.336,130.98c0,0-25.866-2.198-25.866-2.198
							c7.537-12.114,18.427-28.221,26.468-39.995c0.785-1.183,2.997-4.395,3.508-5.168c-2.009,3.09-1.498,7.504,1.162,10.055
							c-19.74-20.89-19.777-48.598-16.04-73.733c0,0,3.198,11.849,3.198,11.849c-11.832-14.485-23.109-28.947-34.039-44.221
							c-11.529-17.985-28.206-35.575-25.349-59.473c2.81-20.351,24.508-31.74,43.167-29.994c9.409,0.715,19.158,7.623,24.859,12.781
							c15.111,13.751,26.121,28.233,37.737,44.514c0,0-21.597-3.084-21.597-3.084c17.179-13.016,34.798-24.653,56.898-27.286
							c0,0-13.361,17.553-13.361,17.553c-3.837-20.587-7.459-40.785-10.051-62.062c-1.194-9.992-3.159-24.315,4.391-33.04
							c20.113-24.798,62.367-18.242,77.504,8.483c16.224,32.524,19.926,68.52,23.997,103.924c-0.001,0-23.185-10.985-23.185-10.985
							c13.916-9.336,27.268-17.889,43.437-25.394c7.167-3.204,17.398-7.018,26.243-4.999c15.696,3.775,26.428,18.471,29.827,32.619
							c3.678,14.139-1.13,31.018-11.96,41.087c-4.423,4.221-9.333,7.916-13.765,12.123c-10.231,9.655-20.027,21.389-27.309,33.329
							l1.876-5.807c-3.369,23.728-11.94,45.985-26.745,64.943c-4.916,6.419-11.013,12.051-17.438,17.229l5.673-9.495
							c-13.731,74.852-45.54,195.495-120.412,229.869c-85.322,33.475-192.025-107.281-232.856-169.314
							c-5.026-8.172,6.313-16.141,12.284-8.749c42.464,49.739,87.207,100.336,142.778,135.489
							c21.436,12.553,48.896,25.573,71.536,11.296c57.778-36.485,85.005-138.73,97.425-203.179
							c1.964-10.062,12.662-13.343,17.847-21.583c11.133-14.071,18.052-32.524,20.548-50.216
							c2.998-10.479,10.868-18.12,16.988-26.585c8.95-11.216,19.626-21.002,30.612-30.258c7.608-6.28,4.534-19.361-3.096-23.848
							c-12.928,4.168-32.46,16.083-46.635,25.778c-6.82,4.608-16.084,2.815-20.692-4.004c-1.443-2.136-2.262-4.585-2.492-6.981
							c-1.804-19.526-4.76-39.771-9.151-58.805c-4.263-14.195-6.242-34.533-20.541-40.56c-5.626-2.073-14.357-1.738-18.567,2.292
							c-0.322,0.112,0.265-0.117,0.116-0.344c0.01-0.216,0.416-0.768,0.142-1.179c-0.041,3.508,0.501,8.746,1.029,13.468
							c2.377,19.607,5.996,39.976,9.713,59.862c1.509,8.075-3.814,15.845-11.889,17.354c-13.805,1.187-30.512,11.952-41.951,20.868
							c-6.688,5.405-16.686,3.967-21.598-3.083c-9.829-13.909-21.213-28.496-32.803-38.96c-3.066-2.686-6.018-4.756-7.902-5.564
							c0.098,0.173,0.365,0.195,0.482,0.036c-3.323-0.328-8.332,0.786-10.424,2.6c-7.052,6.656,14.117,32.546,18.763,40.144
							c10.308,14.417,21.489,28.761,32.75,42.544c2.797,3.423,3.83,7.709,3.212,11.76c-1.494,9.469-2.138,18.972-0.919,27.494
							c1.271,9.809,4.723,16.945,10.132,22.193c5.834,6.999,6.447,17.664,1.454,25.287c-6.019,9.302-15.072,23.125-21.211,32.388
							c0,0-9.115,13.137-9.115,13.137l-0.47,0.677c-6.148,9.463-21.558,7.618-25.397-2.875
							c-9.774-24.583-22.334-47.96-37.113-69.938c-14.821-22.023-32.158-42.482-51.327-61.361
							C2033.964,2224.06,2043.174,2213.379,2050.898,2219.186L2050.898,2219.186z"/>
					</g>
				</g>
				<g>
					<g>
						<path style="fill:#02023D;" d="M2154.681,2364.858c-16.855,20.782-33.221,43.687-44.637,67.85
							c-2.032,4.622-7.487,6.689-12.068,4.557c-4.143-1.921-6.14-6.588-4.835-10.835c4.357-14.235,10.157-27.644,16.508-40.69
							c6.523-13.199,13.257-25.611,21.064-38.26C2142.503,2330.123,2167.524,2348.224,2154.681,2364.858L2154.681,2364.858z"/>
					</g>
				</g>
			</g>
			<g>
				<g>
					<path style="fill:#02023D;" d="M1627.592,2435.702c-13.727,19.152-26.002,40.576-35.519,62.283
						c-3.244,7.327-5.963,14.805-8.481,22.356c-1.456,4.87-6.678,7.606-11.505,5.984c-4.386-1.462-6.901-5.968-5.981-10.387
						c1.753-8.467,3.763-16.897,6.305-25.114c7.684-24.952,17.687-48.332,30.388-71.3c4.022-7.137,13.068-9.662,20.205-5.64
						C1630.771,2418.184,1632.955,2428.64,1627.592,2435.702L1627.592,2435.702z"/>
				</g>
			</g>
			<g>
				<g>
					<g>
						<g>
							<ellipse style="fill:#6D6D6D;" cx="1933.382" cy="3449.709" rx="73.4" ry="81.841"/>
						</g>
					</g>
					<g>
						<g>
							<path style="fill:#02023D;" d="M1933.382,3546.353c-48.635,0-88.201-43.354-88.201-96.643
								c0-53.289,39.565-96.643,88.201-96.643c48.635,0,88.203,43.354,88.203,96.643
								C2021.585,3502.999,1982.017,3546.353,1933.382,3546.353z M1933.382,3382.671c-32.309,0-58.596,30.073-58.596,67.039
								c0,36.965,26.287,67.039,58.596,67.039c32.312,0,58.599-30.073,58.599-67.039
								C1991.98,3412.745,1965.694,3382.671,1933.382,3382.671z"/>
						</g>
					</g>
					<g>
						<g>
							<path style="fill:#02023D;" d="M1914.172,3417.201c21.864-13.689,47.986,7.107,49.335,30.295
								c3.565,25.831-20.312,47.737-44.979,35.693c-4.948-2.137-3.898-9.922,1.321-10.773c6.493-1.22,13.348-2.714,16.66-7.848
								c7.971-14.854-1.629-35.306-20.209-38.013C1911.667,3426.094,1910.22,3419.561,1914.172,3417.201L1914.172,3417.201z"/>
						</g>
					</g>
				</g>
				<g>
					<g>
						<path style="fill:#6D6D6D;" d="M1927.598,3468.042h-66.276c-10.941,0-19.81-8.869-19.81-19.81l0,0
							c0-10.941,8.869-19.81,19.81-19.81h66.276c10.941,0,19.81,8.869,19.81,19.81l0,0
							C1947.407,3459.173,1938.538,3468.042,1927.598,3468.042z"/>
					</g>
				</g>
				<g>
					<g>
						<path style="fill:#02023D;" d="M1927.598,3477.911h-66.277c-16.365,0-29.678-13.313-29.678-29.678
							c0-16.365,13.313-29.677,29.678-29.677h66.277c16.365,0,29.678,13.313,29.678,29.677
							C1957.276,3464.598,1943.963,3477.911,1927.598,3477.911z M1861.321,3438.292c-5.481,0-9.941,4.461-9.941,9.941
							c0,5.481,4.46,9.942,9.941,9.942h66.277c5.481,0,9.941-4.46,9.941-9.942c0-5.481-4.461-9.941-9.941-9.941H1861.321z"/>
					</g>
				</g>
				<g>
					<g>
						<g>
							<ellipse style="fill:#6D6D6D;" cx="1783.526" cy="3449.709" rx="73.4" ry="81.841"/>
						</g>
					</g>
					<g style="opacity:0.6;">
						<g>
							<ellipse style="fill:#FFFFFF;" cx="1737.753" cy="3438.928" rx="27.627" ry="39.499"/>
						</g>
					</g>
					<g>
						<g>
							<path style="fill:#02023D;" d="M1783.526,3546.353c-48.635,0-88.201-43.354-88.201-96.643
								c0-53.289,39.565-96.643,88.201-96.643c48.635,0,88.203,43.354,88.203,96.643
								C1871.729,3502.999,1832.161,3546.353,1783.526,3546.353z M1783.526,3382.671c-32.31,0-58.596,30.073-58.596,67.039
								c0,36.965,26.287,67.039,58.596,67.039c32.312,0,58.599-30.073,58.599-67.039
								C1842.124,3412.745,1815.838,3382.671,1783.526,3382.671z"/>
						</g>
					</g>
					<g>
						<g>
							<path style="fill:#02023D;" d="M1764.316,3417.201c21.864-13.689,47.986,7.107,49.335,30.295
								c3.565,25.831-20.312,47.737-44.979,35.693c-4.948-2.137-3.898-9.922,1.321-10.773c6.493-1.22,13.348-2.714,16.661-7.848
								c7.971-14.854-1.629-35.306-20.208-38.013C1761.811,3426.094,1760.364,3419.561,1764.316,3417.201L1764.316,3417.201z"/>
						</g>
					</g>
				</g>
			</g>
			<g>
				<g>
					<g>
						<g>
							<ellipse style="fill:#6D6D6D;" cx="2563.4" cy="3449.709" rx="73.4" ry="81.841"/>
						</g>
					</g>
					<g>
						<g>
							<path style="fill:#02023D;" d="M2563.399,3546.353c-48.635,0-88.201-43.354-88.201-96.643
								c0-53.289,39.565-96.643,88.201-96.643s88.203,43.354,88.203,96.643C2651.602,3502.999,2612.034,3546.353,2563.399,3546.353z
								 M2563.399,3382.671c-32.31,0-58.596,30.073-58.596,67.039c0,36.965,26.287,67.039,58.596,67.039
								c32.312,0,58.599-30.073,58.599-67.039C2621.997,3412.745,2595.711,3382.671,2563.399,3382.671z"/>
						</g>
					</g>
					<g>
						<g>
							<path style="fill:#02023D;" d="M2544.189,3417.201c21.864-13.689,47.986,7.107,49.335,30.295
								c3.565,25.832-20.312,47.737-44.979,35.693c-4.948-2.137-3.898-9.922,1.321-10.773c6.492-1.22,13.348-2.714,16.66-7.848
								c7.971-14.854-1.628-35.306-20.208-38.013C2541.685,3426.094,2540.237,3419.561,2544.189,3417.201L2544.189,3417.201z"/>
						</g>
					</g>
				</g>
				<g>
					<g>
						<path style="fill:#6D6D6D;" d="M2557.615,3468.042h-66.276c-10.941,0-19.81-8.869-19.81-19.81l0,0
							c0-10.941,8.869-19.81,19.81-19.81h66.276c10.941,0,19.81,8.869,19.81,19.81l0,0
							C2577.425,3459.173,2568.556,3468.042,2557.615,3468.042z"/>
					</g>
				</g>
				<g>
					<g>
						<path style="fill:#02023D;" d="M2557.615,3477.911h-66.274c-16.365,0-29.678-13.313-29.678-29.678
							c0-16.365,13.313-29.677,29.678-29.677h66.274c16.365,0,29.678,13.313,29.678,29.677
							C2587.293,3464.598,2573.98,3477.911,2557.615,3477.911z M2491.341,3438.292c-5.481,0-9.941,4.461-9.941,9.941
							c0,5.481,4.46,9.942,9.941,9.942h66.274c5.481,0,9.941-4.46,9.941-9.942c0-5.481-4.46-9.941-9.941-9.941H2491.341z"/>
					</g>
				</g>
				<g>
					<g>
						<g>
							<ellipse style="fill:#6D6D6D;" cx="2413.544" cy="3449.709" rx="73.4" ry="81.841"/>
						</g>
					</g>
					<g style="opacity:0.6;">
						<g>
							<ellipse style="fill:#FFFFFF;" cx="2367.77" cy="3438.928" rx="27.627" ry="39.499"/>
						</g>
					</g>
					<g>
						<g>
							<path style="fill:#02023D;" d="M2413.543,3546.353c-48.635,0-88.201-43.354-88.201-96.643
								c0-53.289,39.565-96.643,88.201-96.643s88.203,43.354,88.203,96.643C2501.746,3502.999,2462.178,3546.353,2413.543,3546.353z
								 M2413.543,3382.671c-32.31,0-58.596,30.073-58.596,67.039c0,36.965,26.287,67.039,58.596,67.039
								c32.312,0,58.599-30.073,58.599-67.039C2472.141,3412.745,2445.855,3382.671,2413.543,3382.671z"/>
						</g>
					</g>
					<g>
						<g>
							<path style="fill:#02023D;" d="M2394.333,3417.201c21.864-13.689,47.986,7.107,49.335,30.295
								c3.565,25.831-20.312,47.737-44.979,35.693c-4.948-2.137-3.898-9.922,1.321-10.773c6.493-1.22,13.348-2.714,16.661-7.848
								c7.97-14.854-1.629-35.306-20.209-38.013C2391.828,3426.094,2390.381,3419.561,2394.333,3417.201L2394.333,3417.201z"/>
						</g>
					</g>
				</g>
			</g>
			<g>
				<g>
					<g>
						<path style="fill:#FEBC42;" d="M2802.32,2791.677c0,0-15.81-52.481-75.983-33.03c-60.174,19.451-92.47,91.75-52.834,137.258
							c39.636,45.508,177.628,26.791,195.244-23.488C2886.363,2822.138,2841.956,2743.967,2802.32,2791.677z"/>
					</g>
				</g>
				<g>
					<g>
						<path style="fill:#F29130;" d="M2868.734,2872.409c-17.615,50.28-155.573,69.029-195.243,23.488
							c-10.411-11.941-15.839-25.708-17.122-39.868c0.691,0.888,1.431,1.776,2.221,2.665
							c39.67,45.542,177.628,26.792,195.243-23.487c4.441-12.632,4.934-27.04,2.566-40.756
							C2870.659,2814.236,2877.665,2846.9,2868.734,2872.409z"/>
					</g>
				</g>
				<g>
					<g>
						<path style="fill:#02023D;" d="M2753.02,2936.524c-35.828,0.002-71.44-8.806-90.681-30.899
							c-19.424-22.302-25.798-52.256-17.49-82.182c10.161-36.599,39.641-66.826,76.934-78.879
							c23.164-7.49,43.704-6.677,61.052,2.415c10.925,5.728,18.64,13.875,23.901,21.357c13.467-8.066,28.364-8.499,42.202-0.667
							c30.967,17.529,47.383,70.813,33.779,109.643c-9.043,25.806-41.614,46.431-87.129,55.174
							C2782.085,2935.079,2767.532,2936.524,2753.02,2936.524z M2751.382,2769.134c-6.226,0-13.069,1.199-20.493,3.599
							c-27.52,8.896-50.095,31.909-57.515,58.63c-5.681,20.469-1.672,39.937,11.289,54.82
							c16.196,18.596,60.503,25.842,105.342,17.229c33.474-6.428,59.504-20.852,64.773-35.889
							c9.417-26.877-3.523-64.524-20.425-74.092c-2.896-1.643-9.692-5.483-20.647,7.705c-3.484,4.189-8.997,6.116-14.331,5.049
							c-5.308-1.077-9.597-4.966-11.196-10.132c-0.146-0.442-5.293-15.771-19.341-22.983
							C2763.728,2770.445,2757.893,2769.134,2751.382,2769.134z"/>
					</g>
				</g>
			</g>
		</g>
	</g>
</g>
</svg>
